# xmcd
#
# Track frame offsets:
#	150
#	11916
#	28670
#	41972
#	61372
#	74209
#	88308
#	99999
#	118961
#
# Disc length: 1771 seconds
#
# Revision: 0
# Processed by: cddbd v1.5.2PL0 Copyright (c) Steve Scherf et al.
# Submitted via: audiograbber 1.83.01
#
DISCID=8906e909
DTITLE=Vince Gill - Country Tour 97
DYEAR=1997
DGENRE=Country
TTITLE0=Take Your Memory With You
TTITLE1=The Strings That Tie You Down
TTITLE2=Riding The Rodeo
TTITLE3=When I Call Your Name
TTITLE4=Say Hello
TTITLE5=Under These Conditions
TTITLE6=I Quit
TTITLE7=No Future In The Past
TTITLE8=Oklahoma Swing
EXTD=
EXTT0=
EXTT1=
EXTT2=
EXTT3=
EXTT4=
EXTT5=
EXTT6=
EXTT7=
EXTT8=
PLAYORDER=
